<?xml version="1.0" encoding="utf-8"?>
<svg version="1.1" id="Layer_1" x="0px" y="0px" viewBox="0 0 246.7 104.3" style="enable-background:new 0 0 246.7 104.3;" xmlns="http://www.w3.org/2000/svg">
  <defs>
    <clipPath id="clippath0" transform="">
      <path d="M 0 0 L 101.746 0 L 101.746 39.372 L 0 39.372 Z" style="fill: none; clip-rule: nonzero;"/>
    </clipPath>
  </defs>
  <style type="text/css">
	.st0{fill:#FFFFFF;}
	.st1{fill:#FC695A;}
</style>
  <g transform="matrix(2.294924, 0, 0, -2.294924, 7.017521, 96.204727)" style="">
    <g transform="">
      <path d="M 0 0 L 101.746 0 L 101.746 39.372 L 0 39.372 Z" style="fill: none;"/>
    </g>
    <g style="clip-path: url(#clippath0);">
      <g transform="translate(57.7381 32.4085)">
        <path d="M 0 0 L -1.84 -5.428 C -2.023 -6.156 -2.113 -6.576 -2.113 -6.689 L -2.352 -6.689 C -2.352 -6.531 -2.431 -6.11 -2.59 -5.428 L -4.465 0 L -9.781 0 L -3.988 -14.314 L -0.477 -14.314 L 5.351 0 Z" style="fill: rgb(255, 255, 255); fill-opacity: 1;"/>
      </g>
    </g>
    <g style="clip-path: url(#clippath0);">
      <g transform="translate(2.1377 13.0965)">
        <path d="M 0 0 C 1.293 0 2.329 0.428 3.108 1.283 C 3.886 2.138 4.275 3.267 4.275 4.67 L 4.275 18.943 L -0.493 18.943 L -0.493 4.933 C -0.493 4.254 -0.756 3.914 -1.283 3.914 L -2.138 3.914 L -2.138 0 Z M 3.799 21.443 C 4.313 21.925 4.571 22.539 4.571 23.285 C 4.571 24.03 4.313 24.65 3.799 25.143 C 3.283 25.636 2.642 25.883 1.875 25.883 C 1.129 25.883 0.504 25.636 0 25.143 C -0.505 24.65 -0.756 24.03 -0.756 23.285 C -0.756 22.539 -0.505 21.925 0 21.443 C 0.504 20.96 1.129 20.719 1.875 20.719 C 2.642 20.719 3.283 20.96 3.799 21.443 M 12.201 5.986 C 12.354 5.723 12.678 5.459 13.171 5.196 C 13.665 4.933 14.251 4.802 14.931 4.802 C 16.597 4.802 17.967 5.476 19.042 6.824 C 20.116 8.173 20.653 9.921 20.653 12.07 C 20.653 14.262 20.105 16.011 19.009 17.316 C 17.912 18.62 16.498 19.272 14.766 19.272 C 14.24 19.272 13.741 19.195 13.27 19.042 C 12.798 18.888 12.431 18.713 12.168 18.516 C 11.905 18.319 11.664 18.094 11.445 17.842 C 11.225 17.589 11.088 17.414 11.034 17.316 C 10.979 17.217 10.94 17.135 10.918 17.069 L 10.754 17.069 L 10.03 18.943 L 7.038 18.943 L 7.038 0 L 11.774 0 L 11.774 6.38 L 11.971 6.38 Z M 13.714 15.392 C 14.372 15.392 14.898 15.073 15.293 14.438 C 15.687 13.802 15.885 12.991 15.885 12.004 C 15.885 11.017 15.687 10.217 15.293 9.603 C 14.898 8.989 14.372 8.682 13.714 8.682 C 13.034 8.682 12.508 8.978 12.135 9.57 C 11.762 10.162 11.576 10.973 11.576 12.004 C 11.576 13.034 11.762 13.857 12.135 14.471 C 12.508 15.084 13.034 15.392 13.714 15.392 M 27.559 5.131 L 27.559 13.057 C 27.559 13.67 27.707 14.169 28.003 14.553 C 28.299 14.936 28.743 15.128 29.335 15.128 C 30.519 15.128 31.111 14.383 31.111 12.892 L 31.111 5.131 L 35.847 5.131 L 35.847 13.287 C 35.847 15.128 35.392 16.592 34.482 17.677 C 33.572 18.763 32.372 19.305 30.881 19.305 C 29.346 19.305 28.272 18.768 27.658 17.694 L 27.559 17.694 L 27.559 25.028 L 22.725 25.028 L 22.725 5.131 Z" style="fill: rgb(255, 255, 255); fill-opacity: 1;"/>
      </g>
    </g>
    <g style="clip-path: url(#clippath0);">
      <g transform="translate(46.139 28.7996)">
        <path d="M 0 0 C 0 0.715 -0.159 1.562 -0.852 2.072 C -1.502 2.552 -2.019 2.887 -2.019 4.406 C -2.019 5.426 -1.685 5.486 -0.998 6.01 C -0.232 6.593 0 7.362 0 8.05 C 0 9.443 -1.129 10.573 -2.522 10.573 C -3.915 10.573 -5.044 9.443 -5.044 8.05 C -5.044 7.342 -4.776 6.602 -4.133 6.083 C -3.185 5.317 -2.945 5.472 -2.945 4.406 C -2.945 3.285 -3.258 2.692 -4.06 2.221 C -4.877 1.638 -5.044 0.784 -5.044 0 L -5.044 -8.354 C -4.888 -9.597 -3.807 -10.573 -2.522 -10.573 C -1.237 -10.573 -0.157 -9.597 0 -8.354 Z" style="fill: rgb(255, 255, 255); fill-opacity: 1;"/>
      </g>
    </g>
    <g style="clip-path: url(#clippath0);">
      <g transform="translate(101.7464 24.4688)">
        <path d="M 0 0 C 0 3.761 -2.837 6.81 -6.336 6.81 L -6.336 6.811 L -27.685 6.811 L -28.627 6.81 C -32.126 6.81 -34.963 3.761 -34.963 0 C -34.963 -3.761 -32.126 -6.81 -28.627 -6.81 L -6.336 -6.81 C -2.837 -6.81 0 -3.761 0 0 M -24.38 -3.661 L -26.08 -3.661 L -26.08 3.372 L -24.38 3.372 Z M -15.285 -3.661 L -16.609 -3.661 L -19.551 0.258 L -19.551 -3.661 L -21.239 -3.661 L -21.239 3.372 L -19.894 3.372 L -16.972 -0.559 L -16.972 3.372 L -15.285 3.372 Z M -6.189 -3.661 L -7.887 -3.661 L -8.327 -2.395 L -10.697 -2.395 L -11.07 -3.661 L -12.905 -3.661 L -10.61 3.372 L -8.614 3.372 Z M -10.303 -1.059 L -8.791 -1.059 L -9.541 1.496 Z" style="fill: rgb(253, 105, 90); fill-opacity: 1;"/>
      </g>
    </g>
    <g style="clip-path: url(#clippath0);">
      <g transform="translate(1.0999 1.4)">
        <path d="M 0 0 C 0.491 0 0.86 0.145 1.108 0.436 C 1.356 0.727 1.48 1.139 1.48 1.672 L 1.48 4.912 L 0.824 4.912 L 0.824 1.808 C 0.824 1.029 0.536 0.64 -0.04 0.64 C -0.323 0.64 -0.568 0.731 -0.776 0.912 L -1.096 0.408 C -0.824 0.136 -0.459 0 0 0 M 4.708 3.192 C 4.487 3.432 4.149 3.552 3.696 3.552 C 3.221 3.552 2.837 3.451 2.544 3.248 L 2.784 2.728 L 2.888 2.8 C 2.957 2.843 3.061 2.885 3.2 2.928 C 3.339 2.971 3.477 2.992 3.616 2.992 C 4.149 2.992 4.416 2.725 4.416 2.192 L 4.416 2.088 C 4.181 2.163 3.947 2.2 3.712 2.2 C 3.264 2.2 2.917 2.1 2.672 1.9 C 2.427 1.7 2.304 1.435 2.304 1.104 C 2.304 0.795 2.408 0.539 2.616 0.336 C 2.824 0.133 3.109 0.032 3.472 0.032 C 3.947 0.032 4.288 0.211 4.496 0.568 L 4.512 0.568 L 4.592 0.112 L 5.04 0.112 L 5.04 2.184 C 5.04 2.616 4.929 2.952 4.708 3.192 M 4.18 0.776 C 4.023 0.611 3.827 0.528 3.592 0.528 C 3.389 0.528 3.231 0.584 3.116 0.696 C 3.001 0.808 2.944 0.952 2.944 1.128 C 2.944 1.549 3.221 1.76 3.776 1.76 C 4.021 1.76 4.235 1.712 4.416 1.616 L 4.416 1.368 C 4.416 1.139 4.337 0.941 4.18 0.776 M 7.496 3.48 C 7.314 3.48 7.144 3.429 6.984 3.328 C 6.824 3.227 6.704 3.085 6.624 2.904 L 6.584 2.904 L 6.52 3.472 L 6.08 3.472 L 6.08 0.112 L 6.728 0.112 L 6.728 2.072 C 6.733 2.317 6.813 2.524 6.968 2.692 C 7.122 2.86 7.301 2.944 7.504 2.944 L 7.672 2.944 L 7.672 3.48 Z M 9.008 4.276 C 9.088 4.353 9.128 4.451 9.128 4.568 C 9.128 4.685 9.088 4.784 9.008 4.864 C 8.928 4.944 8.832 4.984 8.72 4.984 C 8.602 4.984 8.504 4.944 8.424 4.864 C 8.344 4.784 8.304 4.685 8.304 4.568 C 8.304 4.451 8.344 4.353 8.424 4.276 C 8.504 4.199 8.602 4.16 8.72 4.16 C 8.832 4.16 8.928 4.199 9.008 4.276 M 9.048 3.472 L 8.392 3.472 L 8.392 0.112 L 9.048 0.112 Z M 9.048 0.112 M 10.776 0.112 L 10.776 2.24 C 10.776 2.443 10.846 2.62 10.988 2.772 C 11.129 2.924 11.322 3 11.568 3 C 11.813 3 12.002 2.916 12.136 2.748 C 12.269 2.58 12.336 2.349 12.336 2.056 L 12.336 0.112 L 12.992 0.112 L 12.992 2.104 C 12.992 2.563 12.881 2.919 12.66 3.172 C 12.438 3.425 12.13 3.552 11.736 3.552 C 11.277 3.552 10.925 3.363 10.68 2.984 L 10.632 2.984 L 10.568 3.472 L 10.128 3.472 L 10.128 0.112 Z M 16.792 3.472 L 15.752 3.472 C 15.613 3.515 15.456 3.536 15.28 3.536 C 14.901 3.536 14.606 3.424 14.396 3.2 C 14.185 2.976 14.08 2.699 14.08 2.368 C 14.08 2.123 14.138 1.909 14.256 1.728 C 13.973 1.579 13.832 1.36 13.832 1.072 C 13.832 0.725 14.002 0.483 14.344 0.344 C 13.992 0.163 13.816 -0.096 13.816 -0.432 C 13.816 -0.731 13.934 -0.967 14.172 -1.14 C 14.409 -1.313 14.776 -1.4 15.272 -1.4 C 15.757 -1.4 16.141 -1.292 16.424 -1.076 C 16.706 -0.86 16.848 -0.6 16.848 -0.296 C 16.848 0.019 16.742 0.257 16.532 0.42 C 16.321 0.583 15.946 0.677 15.408 0.704 C 15.114 0.72 14.89 0.749 14.736 0.792 C 14.581 0.835 14.485 0.879 14.448 0.924 C 14.41 0.969 14.392 1.032 14.392 1.112 C 14.392 1.245 14.453 1.344 14.576 1.408 C 14.778 1.285 15.013 1.224 15.28 1.224 C 15.669 1.224 15.97 1.335 16.184 1.556 C 16.397 1.777 16.504 2.04 16.504 2.344 C 16.504 2.659 16.461 2.859 16.376 2.944 L 16.376 2.96 L 16.792 2.96 Z M 16.208 -0.344 C 16.208 -0.509 16.129 -0.647 15.972 -0.756 C 15.814 -0.865 15.581 -0.92 15.272 -0.92 C 14.994 -0.92 14.786 -0.871 14.648 -0.772 C 14.509 -0.673 14.44 -0.549 14.44 -0.4 C 14.44 -0.139 14.602 0.061 14.928 0.2 C 15.029 0.189 15.189 0.179 15.408 0.168 C 15.941 0.152 16.208 -0.019 16.208 -0.344 M 15.76 2.86 C 15.877 2.729 15.936 2.568 15.936 2.376 C 15.936 2.179 15.878 2.017 15.764 1.892 C 15.649 1.767 15.488 1.704 15.28 1.704 C 15.082 1.704 14.926 1.768 14.812 1.896 C 14.697 2.024 14.64 2.184 14.64 2.376 C 14.64 2.563 14.697 2.723 14.812 2.856 C 14.926 2.989 15.082 3.056 15.28 3.056 C 15.482 3.056 15.642 2.991 15.76 2.86 M 19.756 3.192 C 19.534 3.432 19.197 3.552 18.744 3.552 C 18.269 3.552 17.885 3.451 17.592 3.248 L 17.832 2.728 L 17.936 2.8 C 18.005 2.843 18.109 2.885 18.248 2.928 C 18.386 2.971 18.525 2.992 18.664 2.992 C 19.197 2.992 19.464 2.725 19.464 2.192 L 19.464 2.088 C 19.229 2.163 18.994 2.2 18.76 2.2 C 18.312 2.2 17.965 2.1 17.72 1.9 C 17.474 1.7 17.352 1.435 17.352 1.104 C 17.352 0.795 17.456 0.539 17.664 0.336 C 17.872 0.133 18.157 0.032 18.52 0.032 C 18.994 0.032 19.336 0.211 19.544 0.568 L 19.56 0.568 L 19.64 0.112 L 20.088 0.112 L 20.088 2.184 C 20.088 2.616 19.977 2.952 19.756 3.192 M 19.228 0.776 C 19.07 0.611 18.874 0.528 18.64 0.528 C 18.437 0.528 18.278 0.584 18.164 0.696 C 18.049 0.808 17.992 0.952 17.992 1.128 C 17.992 1.549 18.269 1.76 18.824 1.76 C 19.069 1.76 19.282 1.712 19.464 1.616 L 19.464 1.368 C 19.464 1.139 19.385 0.941 19.228 0.776 M 21.776 0.112 L 21.776 2.24 C 21.776 2.443 21.846 2.62 21.988 2.772 C 22.129 2.924 22.322 3 22.568 3 C 22.813 3 23.002 2.916 23.136 2.748 C 23.269 2.58 23.336 2.349 23.336 2.056 L 23.336 0.112 L 23.992 0.112 L 23.992 2.104 C 23.992 2.563 23.881 2.919 23.66 3.172 C 23.438 3.425 23.13 3.552 22.736 3.552 C 22.277 3.552 21.925 3.363 21.68 2.984 L 21.632 2.984 L 21.568 3.472 L 21.128 3.472 L 21.128 0.112 Z M 27.528 0.112 L 27.528 1.656 L 28.624 1.656 C 29.146 1.656 29.561 1.8 29.868 2.088 C 30.174 2.376 30.328 2.784 30.328 3.312 C 30.328 3.813 30.178 4.205 29.88 4.488 C 29.581 4.771 29.173 4.912 28.656 4.912 L 26.872 4.912 L 26.872 0.112 Z M 28.624 2.256 L 27.528 2.256 L 27.528 4.312 L 28.624 4.312 C 28.944 4.312 29.196 4.227 29.38 4.056 C 29.564 3.885 29.656 3.632 29.656 3.296 C 29.656 2.603 29.312 2.256 28.624 2.256 M 33.216 0.8 C 33.157 0.747 33.058 0.695 32.92 0.644 C 32.781 0.593 32.634 0.568 32.48 0.568 C 32.192 0.568 31.958 0.665 31.78 0.86 C 31.601 1.055 31.506 1.339 31.496 1.712 L 33.696 1.712 L 33.696 1.88 C 33.696 2.371 33.576 2.772 33.336 3.084 C 33.096 3.396 32.757 3.552 32.32 3.552 C 31.877 3.552 31.522 3.387 31.256 3.056 C 30.989 2.725 30.856 2.301 30.856 1.784 C 30.856 1.256 30.997 0.831 31.28 0.508 C 31.562 0.185 31.949 0.024 32.44 0.024 C 32.674 0.024 32.886 0.06 33.076 0.132 C 33.265 0.204 33.384 0.263 33.432 0.308 C 33.48 0.353 33.517 0.389 33.544 0.416 L 33.312 0.872 Z M 33.048 2.192 L 31.52 2.192 C 31.605 2.741 31.869 3.016 32.312 3.016 C 32.744 3.016 32.989 2.741 33.048 2.192 M 35.192 0.112 L 35.192 2.24 C 35.192 2.443 35.262 2.62 35.404 2.772 C 35.545 2.924 35.738 3 35.984 3 C 36.229 3 36.418 2.916 36.552 2.748 C 36.685 2.58 36.752 2.349 36.752 2.056 L 36.752 0.112 L 37.408 0.112 L 37.408 2.104 C 37.408 2.563 37.297 2.919 37.076 3.172 C 36.854 3.425 36.546 3.552 36.152 3.552 C 35.693 3.552 35.341 3.363 35.096 2.984 L 35.048 2.984 L 34.984 3.472 L 34.544 3.472 L 34.544 0.112 Z M 40.608 0.8 C 40.549 0.747 40.45 0.695 40.312 0.644 C 40.173 0.593 40.026 0.568 39.872 0.568 C 39.584 0.568 39.35 0.665 39.172 0.86 C 38.993 1.055 38.898 1.339 38.888 1.712 L 41.088 1.712 L 41.088 1.88 C 41.088 2.371 40.968 2.772 40.728 3.084 C 40.488 3.396 40.149 3.552 39.712 3.552 C 39.269 3.552 38.914 3.387 38.648 3.056 C 38.381 2.725 38.248 2.301 38.248 1.784 C 38.248 1.256 38.389 0.831 38.672 0.508 C 38.954 0.185 39.341 0.024 39.832 0.024 C 40.066 0.024 40.278 0.06 40.468 0.132 C 40.657 0.204 40.776 0.263 40.824 0.308 C 40.872 0.353 40.909 0.389 40.936 0.416 L 40.704 0.872 Z M 40.44 2.192 L 38.912 2.192 C 38.997 2.741 39.261 3.016 39.704 3.016 C 40.136 3.016 40.381 2.741 40.44 2.192 M 42.6 4.952 L 41.952 4.952 L 41.952 0.112 L 42.6 0.112 Z M 42.6 0.112 M 44.311 4.276 C 44.391 4.353 44.431 4.451 44.431 4.568 C 44.431 4.685 44.391 4.784 44.311 4.864 C 44.231 4.944 44.135 4.984 44.023 4.984 C 43.906 4.984 43.807 4.944 43.727 4.864 C 43.647 4.784 43.607 4.685 43.607 4.568 C 43.607 4.451 43.647 4.353 43.727 4.276 C 43.807 4.199 43.906 4.16 44.023 4.16 C 44.135 4.16 44.231 4.199 44.311 4.276 M 44.351 3.472 L 43.695 3.472 L 43.695 0.112 L 44.351 0.112 Z M 44.351 0.112 M 45.079 2.952 L 45.639 2.952 L 45.639 1.088 C 45.639 0.384 45.959 0.032 46.599 0.032 C 46.882 0.032 47.122 0.112 47.319 0.272 L 47.111 0.736 L 47.055 0.704 C 47.018 0.677 46.965 0.652 46.895 0.628 C 46.826 0.604 46.759 0.592 46.695 0.592 C 46.429 0.592 46.295 0.76 46.295 1.096 L 46.295 2.952 L 47.151 2.952 L 47.151 3.472 L 46.295 3.472 L 46.295 4.496 L 45.639 4.496 L 45.639 3.472 L 45.079 3.472 Z M 48.631 4.276 C 48.711 4.353 48.751 4.451 48.751 4.568 C 48.751 4.685 48.711 4.784 48.631 4.864 C 48.551 4.944 48.455 4.984 48.343 4.984 C 48.226 4.984 48.127 4.944 48.047 4.864 C 47.967 4.784 47.927 4.685 47.927 4.568 C 47.927 4.451 47.967 4.353 48.047 4.276 C 48.127 4.199 48.226 4.16 48.343 4.16 C 48.455 4.16 48.551 4.199 48.631 4.276 M 48.671 3.472 L 48.015 3.472 L 48.015 0.112 L 48.671 0.112 Z M 48.671 0.112 M 51.907 3.192 C 51.686 3.432 51.349 3.552 50.895 3.552 C 50.421 3.552 50.037 3.451 49.743 3.248 L 49.983 2.728 L 50.087 2.8 C 50.157 2.843 50.261 2.885 50.399 2.928 C 50.538 2.971 50.677 2.992 50.815 2.992 C 51.349 2.992 51.615 2.725 51.615 2.192 L 51.615 2.088 C 51.381 2.163 51.146 2.2 50.911 2.2 C 50.463 2.2 50.117 2.1 49.871 1.9 C 49.626 1.7 49.503 1.435 49.503 1.104 C 49.503 0.795 49.607 0.539 49.815 0.336 C 50.023 0.133 50.309 0.032 50.671 0.032 C 51.146 0.032 51.487 0.211 51.695 0.568 L 51.711 0.568 L 51.791 0.112 L 52.239 0.112 L 52.239 2.184 C 52.239 2.616 52.129 2.952 51.907 3.192 M 51.379 0.776 C 51.222 0.611 51.026 0.528 50.791 0.528 C 50.589 0.528 50.43 0.584 50.315 0.696 C 50.201 0.808 50.143 0.952 50.143 1.128 C 50.143 1.549 50.421 1.76 50.975 1.76 C 51.221 1.76 51.434 1.712 51.615 1.616 L 51.615 1.368 C 51.615 1.139 51.537 0.941 51.379 0.776 M 53.927 0.112 L 53.927 2.24 C 53.927 2.443 53.998 2.62 54.139 2.772 C 54.281 2.924 54.474 3 54.719 3 C 54.965 3 55.154 2.916 55.287 2.748 C 55.421 2.58 55.487 2.349 55.487 2.056 L 55.487 0.112 L 56.143 0.112 L 56.143 2.104 C 56.143 2.563 56.033 2.919 55.811 3.172 C 55.59 3.425 55.282 3.552 54.887 3.552 C 54.429 3.552 54.077 3.363 53.831 2.984 L 53.783 2.984 L 53.719 3.472 L 53.279 3.472 L 53.279 0.112 Z M 61.975 4.912 L 61.975 2.776 L 59.679 2.776 L 59.679 4.912 L 59.023 4.912 L 59.023 0.112 L 59.679 0.112 L 59.679 2.192 L 61.975 2.192 L 61.975 0.112 L 62.631 0.112 L 62.631 4.912 Z M 63.911 0.112 L 64.567 0.112 L 64.567 4.912 L 63.911 4.912 Z M 63.911 4.912 M 67.783 0.112 L 69.623 4.912 L 68.935 4.912 L 67.463 0.937 L 65.999 4.912 L 65.311 4.912 L 67.151 0.112 Z M 71.895 0.112 L 72.551 0.112 L 72.551 4.912 L 71.895 4.912 Z M 71.895 4.912 M 74.375 0.112 L 74.375 2.24 C 74.375 2.443 74.446 2.62 74.587 2.772 C 74.728 2.924 74.922 3 75.167 3 C 75.412 3 75.602 2.916 75.735 2.748 C 75.868 2.58 75.935 2.349 75.935 2.056 L 75.935 0.112 L 76.591 0.112 L 76.591 2.104 C 76.591 2.563 76.48 2.919 76.259 3.172 C 76.038 3.425 75.73 3.552 75.335 3.552 C 74.876 3.552 74.524 3.363 74.279 2.984 L 74.231 2.984 L 74.167 3.472 L 73.727 3.472 L 73.727 0.112 Z M 79.767 3.168 C 79.713 3.253 79.603 3.339 79.435 3.424 C 79.267 3.509 79.071 3.552 78.847 3.552 C 78.441 3.552 78.104 3.388 77.835 3.06 C 77.565 2.732 77.431 2.309 77.431 1.792 C 77.431 1.264 77.567 0.839 77.839 0.516 C 78.111 0.193 78.455 0.032 78.871 0.032 C 79.025 0.032 79.168 0.053 79.299 0.096 C 79.429 0.139 79.532 0.187 79.607 0.24 C 79.681 0.293 79.749 0.355 79.811 0.424 C 79.872 0.493 79.911 0.541 79.927 0.568 C 79.943 0.595 79.953 0.616 79.959 0.632 L 79.991 0.632 L 80.087 0.112 L 80.527 0.112 L 80.527 4.952 L 79.871 4.952 L 79.871 3.048 L 79.847 3.048 Z M 78.999 0.576 C 78.737 0.576 78.521 0.691 78.351 0.92 C 78.18 1.149 78.095 1.44 78.095 1.792 C 78.095 2.149 78.18 2.441 78.351 2.668 C 78.521 2.895 78.737 3.008 78.999 3.008 C 79.26 3.008 79.479 2.897 79.655 2.676 C 79.831 2.455 79.919 2.16 79.919 1.792 C 79.919 1.424 79.831 1.129 79.655 0.908 C 79.479 0.687 79.26 0.576 78.999 0.576 M 82.959 3.552 C 82.516 3.552 82.145 3.388 81.847 3.06 C 81.548 2.732 81.399 2.304 81.399 1.776 C 81.399 1.253 81.548 0.832 81.847 0.512 C 82.145 0.192 82.516 0.032 82.959 0.032 C 83.401 0.032 83.775 0.192 84.079 0.512 C 84.383 0.832 84.535 1.253 84.535 1.776 C 84.535 2.299 84.383 2.725 84.079 3.056 C 83.775 3.387 83.401 3.552 82.959 3.552 M 82.303 0.892 C 82.127 1.113 82.039 1.411 82.039 1.784 C 82.039 2.157 82.127 2.457 82.303 2.684 C 82.479 2.911 82.697 3.024 82.959 3.024 C 83.22 3.024 83.44 2.911 83.619 2.684 C 83.797 2.457 83.887 2.157 83.887 1.784 C 83.887 1.411 83.799 1.113 83.623 0.892 C 83.447 0.671 83.225 0.56 82.959 0.56 C 82.697 0.56 82.479 0.671 82.303 0.892 M 86.055 0.112 L 86.055 2.24 C 86.055 2.443 86.125 2.62 86.267 2.772 C 86.408 2.924 86.601 3 86.847 3 C 87.092 3 87.281 2.916 87.415 2.748 C 87.548 2.58 87.615 2.349 87.615 2.056 L 87.615 0.112 L 88.271 0.112 L 88.271 2.104 C 88.271 2.563 88.16 2.919 87.939 3.172 C 87.717 3.425 87.409 3.552 87.015 3.552 C 86.556 3.552 86.204 3.363 85.959 2.984 L 85.911 2.984 L 85.847 3.472 L 85.407 3.472 L 85.407 0.112 Z M 91.471 0.8 C 91.412 0.747 91.313 0.695 91.175 0.644 C 91.036 0.593 90.889 0.568 90.735 0.568 C 90.447 0.568 90.213 0.665 90.035 0.86 C 89.856 1.055 89.761 1.339 89.751 1.712 L 91.951 1.712 L 91.951 1.88 C 91.951 2.371 91.831 2.772 91.591 3.084 C 91.351 3.396 91.012 3.552 90.575 3.552 C 90.132 3.552 89.777 3.387 89.511 3.056 C 89.244 2.725 89.111 2.301 89.111 1.784 C 89.111 1.256 89.252 0.831 89.535 0.508 C 89.817 0.185 90.204 0.024 90.695 0.024 C 90.929 0.024 91.141 0.06 91.331 0.132 C 91.52 0.204 91.639 0.263 91.687 0.308 C 91.735 0.353 91.772 0.389 91.799 0.416 L 91.567 0.872 Z M 91.303 2.192 L 89.775 2.192 C 89.86 2.741 90.124 3.016 90.567 3.016 C 90.999 3.016 91.244 2.741 91.303 2.192 M 92.727 0.336 C 92.807 0.267 92.955 0.199 93.171 0.132 C 93.387 0.065 93.628 0.032 93.895 0.032 C 94.316 0.032 94.627 0.127 94.827 0.316 C 95.027 0.505 95.127 0.747 95.127 1.04 C 95.127 1.285 95.062 1.487 94.934 1.645 C 94.805 1.802 94.647 1.91 94.461 1.967 C 94.275 2.025 94.091 2.081 93.909 2.137 C 93.728 2.193 93.571 2.257 93.438 2.33 C 93.305 2.403 93.239 2.496 93.239 2.611 C 93.239 2.886 93.439 3.024 93.839 3.024 C 94.223 3.024 94.545 2.931 94.807 2.744 L 95.047 3.272 L 94.911 3.344 C 94.82 3.387 94.668 3.432 94.455 3.48 C 94.241 3.528 94.015 3.552 93.775 3.552 C 93.391 3.552 93.1 3.461 92.903 3.28 C 92.705 3.099 92.607 2.867 92.607 2.584 C 92.607 2.36 92.672 2.173 92.803 2.024 C 92.933 1.875 93.091 1.769 93.276 1.708 C 93.461 1.647 93.645 1.586 93.827 1.526 C 94.01 1.465 94.167 1.396 94.298 1.316 C 94.429 1.236 94.495 1.133 94.495 1.006 C 94.495 0.709 94.295 0.56 93.895 0.56 C 93.495 0.56 93.151 0.669 92.863 0.888 L 92.599 0.44 Z M 96.615 4.276 C 96.695 4.353 96.735 4.451 96.735 4.568 C 96.735 4.685 96.695 4.784 96.615 4.864 C 96.535 4.944 96.439 4.984 96.327 4.984 C 96.209 4.984 96.111 4.944 96.031 4.864 C 95.951 4.784 95.911 4.685 95.911 4.568 C 95.911 4.451 95.951 4.353 96.031 4.276 C 96.111 4.199 96.209 4.16 96.327 4.16 C 96.439 4.16 96.535 4.199 96.615 4.276 M 96.655 3.472 L 95.999 3.472 L 95.999 0.112 L 96.655 0.112 Z M 96.655 0.112 M 99.891 3.192 C 99.669 3.432 99.332 3.552 98.879 3.552 C 98.404 3.552 98.02 3.451 97.727 3.248 L 97.967 2.728 L 98.071 2.8 C 98.14 2.843 98.244 2.885 98.383 2.928 C 98.521 2.971 98.66 2.992 98.799 2.992 C 99.332 2.992 99.599 2.725 99.599 2.192 L 99.599 2.088 C 99.364 2.163 99.129 2.2 98.895 2.2 C 98.447 2.2 98.1 2.1 97.855 1.9 C 97.609 1.7 97.487 1.435 97.487 1.104 C 97.487 0.795 97.591 0.539 97.799 0.336 C 98.007 0.133 98.292 0.032 98.655 0.032 C 99.129 0.032 99.471 0.211 99.679 0.568 L 99.695 0.568 L 99.775 0.112 L 100.223 0.112 L 100.223 2.184 C 100.223 2.616 100.112 2.952 99.891 3.192 M 99.363 0.776 C 99.205 0.611 99.009 0.528 98.775 0.528 C 98.572 0.528 98.413 0.584 98.299 0.696 C 98.184 0.808 98.127 0.952 98.127 1.128 C 98.127 1.549 98.404 1.76 98.959 1.76 C 99.204 1.76 99.417 1.712 99.599 1.616 L 99.599 1.368 C 99.599 1.139 99.52 0.941 99.363 0.776" style="fill: rgb(255, 255, 255); fill-opacity: 1;"/>
      </g>
    </g>
  </g>
</svg>