<?xml version="1.0" encoding="utf-8"?>
<svg viewBox="0 0 390 120" xmlns="http://www.w3.org/2000/svg">
  <defs>
    <clipPath id="clippath0" transform="">
      <path d="M 0 0 L 187.937 0 L 187.937 56.212 L 0 56.212 Z" style="fill: none; clip-rule: nonzero;"/>
    </clipPath>
  </defs>
  <g transform="matrix(2.021954, 0, 0, -2.021954, 4.877587, 116.563271)" style="">
    <g>
      <g>
        <path d="M 0 0 L 187.937 0 L 187.937 56.212 L 0 56.212 Z" style="fill: none;"/>
      </g>
      <g style="clip-path: url(#clippath0);">
        <g transform="translate(119.599 40.1846)">
          <path d="M 0 0 C 0 2.112 -1.593 3.823 -3.557 3.823 L -15.543 3.823 L -16.072 3.823 C -18.037 3.823 -19.629 2.112 -19.629 0 C -19.629 -2.112 -18.037 -3.823 -16.072 -3.823 L -3.557 -3.823 C -1.593 -3.823 0 -2.112 0 0 M -13.688 -2.055 L -14.642 -2.055 L -14.642 1.893 L -13.688 1.893 Z M -8.581 -2.055 L -9.325 -2.055 L -10.977 0.145 L -10.977 -2.055 L -11.924 -2.055 L -11.924 1.893 L -11.169 1.893 L -9.529 -0.314 L -9.529 1.893 L -8.581 1.893 Z M -3.475 -2.055 L -4.428 -2.055 L -4.675 -1.345 L -6.006 -1.345 L -6.215 -2.055 L -7.245 -2.055 L -5.957 1.893 L -4.836 1.893 Z M -5.784 -0.594 L -4.936 -0.594 L -5.357 0.84 Z" style="fill: rgb(253, 105, 90); fill-opacity: 1;"/>
        </g>
      </g>
      <g style="clip-path: url(#clippath0);">
        <g transform="translate(87.5232 45.6558)">
          <path d="M 0 0 L -2.79 -8.229 C -3.066 -9.332 -3.203 -9.968 -3.203 -10.14 L -3.565 -10.14 C -3.565 -9.9 -3.686 -9.262 -3.926 -8.229 L -6.768 0 L -14.827 0 L -6.045 -21.698 L -0.723 -21.698 L 8.111 0 Z" style="fill: rgb(255, 255, 255); fill-opacity: 1;"/>
        </g>
      </g>
      <g style="clip-path: url(#clippath0);">
        <g transform="translate(3.2405 16.3814)">
          <path d="M 0 0 C 1.961 0 3.531 0.648 4.711 1.944 C 5.891 3.24 6.481 4.953 6.481 7.079 L 6.481 28.716 L -0.748 28.716 L -0.748 7.478 C -0.748 6.448 -1.147 5.933 -1.944 5.933 L -3.24 5.933 L -3.24 0 Z M 5.758 32.505 C 6.539 33.235 6.93 34.166 6.93 35.296 C 6.93 36.426 6.539 37.365 5.758 38.113 C 4.977 38.861 4.005 39.235 2.842 39.235 C 1.711 39.235 0.764 38.861 0 38.113 C -0.765 37.365 -1.147 36.426 -1.147 35.296 C -1.147 34.166 -0.765 33.235 0 32.505 C 0.764 31.773 1.711 31.408 2.842 31.408 C 4.005 31.408 4.977 31.773 5.758 32.505 M 18.495 9.073 C 18.727 8.675 19.218 8.276 19.966 7.877 C 20.714 7.478 21.602 7.279 22.633 7.279 C 25.158 7.279 27.236 8.301 28.865 10.345 C 30.493 12.389 31.308 15.039 31.308 18.296 C 31.308 21.619 30.476 24.27 28.815 26.248 C 27.153 28.225 25.009 29.214 22.384 29.214 C 21.586 29.214 20.83 29.097 20.115 28.865 C 19.4 28.632 18.844 28.367 18.445 28.068 C 18.046 27.769 17.68 27.427 17.349 27.046 C 17.016 26.663 16.808 26.398 16.725 26.248 C 16.642 26.098 16.584 25.974 16.551 25.874 L 16.302 25.874 L 15.205 28.716 L 10.668 28.716 L 10.668 0 L 17.847 0 L 17.847 9.672 L 18.146 9.672 Z M 20.788 23.332 C 21.786 23.332 22.583 22.849 23.181 21.886 C 23.78 20.921 24.079 19.692 24.079 18.197 C 24.079 16.701 23.78 15.487 23.181 14.557 C 22.583 13.626 21.786 13.161 20.788 13.161 C 19.758 13.161 18.96 13.61 18.395 14.507 C 17.83 15.405 17.548 16.634 17.548 18.197 C 17.548 19.758 17.83 21.005 18.395 21.936 C 18.96 22.866 19.758 23.332 20.788 23.332 M 41.776 7.777 L 41.776 19.792 C 41.776 20.722 42.001 21.478 42.449 22.06 C 42.898 22.641 43.571 22.933 44.468 22.933 C 46.263 22.933 47.161 21.802 47.161 19.543 L 47.161 7.777 L 54.34 7.777 L 54.34 20.141 C 54.34 22.933 53.649 25.151 52.271 26.796 C 50.891 28.442 49.071 29.264 46.812 29.264 C 44.485 29.264 42.856 28.449 41.926 26.821 L 41.776 26.821 L 41.776 37.939 L 34.448 37.939 L 34.448 7.777 Z" style="fill: rgb(255, 255, 255); fill-opacity: 1;"/>
        </g>
      </g>
      <g style="clip-path: url(#clippath0);">
        <g transform="translate(115.7756 24.1582)">
          <path d="M 0 0 C 2.112 0 3.823 1.712 3.823 3.823 C 3.823 5.935 2.112 7.647 0 7.647 C -2.112 7.647 -3.823 5.935 -3.823 3.823 C -3.823 1.712 -2.112 0 0 0" style="fill: rgb(253, 105, 90); fill-opacity: 1;"/>
        </g>
      </g>
      <g style="clip-path: url(#clippath0);">
        <g transform="translate(103.7932 48.5645)">
          <path d="M 0 0 C 2.112 0 3.823 1.712 3.823 3.823 C 3.823 5.935 2.112 7.647 0 7.647 C -2.112 7.647 -3.823 5.935 -3.823 3.823 C -3.823 1.712 -2.112 0 0 0" style="fill: rgb(255, 255, 255); fill-opacity: 1;"/>
        </g>
      </g>
      <g style="clip-path: url(#clippath0);">
        <g transform="translate(127.758 36.3613)">
          <path d="M 0 0 C 2.112 0 3.823 1.712 3.823 3.823 C 3.823 5.935 2.112 7.647 0 7.647 C -2.112 7.647 -3.823 5.935 -3.823 3.823 C -3.823 1.712 -2.112 0 0 0" style="fill: rgb(253, 105, 90); fill-opacity: 1;"/>
        </g>
      </g>
      <g style="clip-path: url(#clippath0);">
        <g transform="translate(103.7932 24.1582)">
          <path d="M 0 0 C 2.112 0 3.823 1.712 3.823 3.823 C 3.823 5.935 2.112 7.647 0 7.647 C -2.112 7.647 -3.823 5.935 -3.823 3.823 C -3.823 1.712 -2.112 0 0 0" style="fill: rgb(255, 255, 255); fill-opacity: 1;"/>
        </g>
      </g>
      <g style="clip-path: url(#clippath0);">
        <g transform="translate(127.758 24.1582)">
          <path d="M 0 0 C 2.112 0 3.823 1.712 3.823 3.823 C 3.823 5.935 2.112 7.647 0 7.647 C -2.112 7.647 -3.823 5.935 -3.823 3.823 C -3.823 1.712 -2.112 0 0 0" style="fill: rgb(255, 255, 255); fill-opacity: 1;"/>
        </g>
      </g>
      <g style="clip-path: url(#clippath0);">
        <g transform="translate(115.7756 48.5645)">
          <path d="M 0 0 C 2.112 0 3.823 1.712 3.823 3.823 C 3.823 5.935 2.112 7.647 0 7.647 C -2.112 7.647 -3.823 5.935 -3.823 3.823 C -3.823 1.712 -2.112 0 0 0" style="fill: rgb(253, 105, 90); fill-opacity: 1;"/>
        </g>
      </g>
      <g style="clip-path: url(#clippath0);">
        <g transform="translate(127.758 48.5645)">
          <path d="M 0 0 C 2.112 0 3.823 1.712 3.823 3.823 C 3.823 5.935 2.112 7.647 0 7.647 C -2.112 7.647 -3.823 5.935 -3.823 3.823 C -3.823 1.712 -2.112 0 0 0" style="fill: rgb(255, 255, 255); fill-opacity: 1;"/>
        </g>
      </g>
      <g style="clip-path: url(#clippath0);">
        <g transform="translate(69.9405 40.1851)">
          <path d="M 0 0 C 0 1.084 -0.242 2.368 -1.292 3.141 C -2.278 3.868 -3.06 4.376 -3.06 6.678 C -3.06 8.226 -2.555 8.316 -1.513 9.11 C -0.352 9.994 0 11.16 0 12.203 C 0 14.314 -1.712 16.026 -3.823 16.026 C -5.935 16.026 -7.647 14.314 -7.647 12.203 C -7.647 11.13 -7.24 10.007 -6.265 9.22 C -4.828 8.06 -4.465 8.295 -4.465 6.678 C -4.465 4.98 -4.939 4.081 -6.155 3.367 C -7.393 2.482 -7.647 1.189 -7.647 0 L -7.647 -12.664 C -7.41 -14.548 -5.771 -16.026 -3.823 -16.026 C -1.875 -16.026 -0.237 -14.548 0 -12.664 Z" style="fill: rgb(255, 255, 255); fill-opacity: 1;"/>
        </g>
      </g>
      <g style="clip-path: url(#clippath0);">
        <g transform="translate(145.3284 38.2816)">
          <path d="M 0 0 C 0.823 0.938 1.837 1.407 3.042 1.407 C 4.216 1.407 5.068 0.937 5.597 -0.001 C 6.126 -0.939 6.287 -2.141 6.082 -3.607 L 4.6 -13.797 L 8.905 -13.797 L 10.399 -3.207 C 10.75 -0.717 10.406 1.289 9.366 2.813 C 8.326 4.336 6.722 5.098 4.555 5.098 C 2.183 5.098 0.176 4.072 -1.464 2.022 L -1.683 2.022 L -1.903 4.658 L -4.671 4.658 L -7.262 -13.797 L -2.958 -13.797 L -1.454 -3.077 C -1.307 -1.963 -0.823 -0.938 0 0 M 25.208 -9.578 C 24.827 -9.872 24.248 -10.15 23.472 -10.413 C 22.696 -10.677 21.897 -10.809 21.077 -10.809 C 19.612 -10.809 18.507 -10.341 17.76 -9.403 C 17.013 -8.466 16.712 -7.074 16.859 -5.228 L 28.635 -5.228 L 28.811 -4.086 C 29.221 -1.361 28.855 0.85 27.713 2.549 C 26.57 4.248 24.783 5.098 22.352 5.098 C 19.568 5.098 17.255 4.014 15.409 1.846 C 13.563 -0.322 12.641 -2.987 12.641 -6.151 C 12.641 -8.583 13.307 -10.553 14.64 -12.061 C 15.973 -13.57 17.855 -14.324 20.286 -14.324 C 21.575 -14.324 22.784 -14.119 23.912 -13.709 C 25.039 -13.299 25.764 -12.977 26.087 -12.742 C 26.409 -12.508 26.658 -12.303 26.834 -12.127 L 25.735 -9.183 Z M 24.768 -2.372 L 17.386 -2.372 C 18.206 0.381 19.671 1.758 21.78 1.758 C 23.919 1.758 24.915 0.381 24.768 -2.372 M 30.393 1.275 L 33.39 1.275 L 32.062 -8.172 C 31.799 -10.047 32.025 -11.527 32.743 -12.61 C 33.461 -13.695 34.743 -14.236 36.588 -14.236 C 37.994 -14.236 39.473 -13.782 41.026 -12.874 L 40.15 -9.842 L 39.843 -10.018 C 39.638 -10.135 39.36 -10.253 39.009 -10.369 C 38.658 -10.487 38.323 -10.545 38.001 -10.545 C 36.685 -10.545 36.144 -9.725 36.379 -8.086 L 37.693 1.275 L 42.126 1.275 L 42.608 4.658 L 38.169 4.658 L 38.959 10.283 L 34.655 10.283 L 33.864 4.658 L 30.876 4.658 Z" style="fill: rgb(255, 255, 255); fill-opacity: 1;"/>
        </g>
      </g>
      <g style="clip-path: url(#clippath0);" transform="matrix(1, 0, 0, 1, 0, 1.483713)">
        <g transform="translate(1.6817 2.1045)">
          <path d="M 0 0 C 0.738 0 1.293 0.218 1.666 0.655 C 2.038 1.092 2.225 1.712 2.225 2.513 L 2.225 7.384 L 1.239 7.384 L 1.239 2.718 C 1.239 1.547 0.806 0.962 -0.06 0.962 C -0.485 0.962 -0.854 1.098 -1.167 1.371 L -1.648 0.613 C -1.239 0.204 -0.69 0 0 0 M 6.837 4.798 C 6.504 5.159 5.997 5.34 5.315 5.34 C 4.602 5.34 4.024 5.187 3.584 4.883 L 3.944 4.101 L 4.101 4.209 C 4.205 4.273 4.361 4.337 4.57 4.402 C 4.778 4.466 4.987 4.498 5.195 4.498 C 5.997 4.498 6.398 4.097 6.398 3.295 L 6.398 3.139 C 6.045 3.251 5.692 3.307 5.339 3.307 C 4.666 3.307 4.145 3.157 3.776 2.856 C 3.407 2.556 3.223 2.157 3.223 1.66 C 3.223 1.195 3.379 0.81 3.692 0.505 C 4.005 0.2 4.433 0.048 4.979 0.048 C 5.692 0.048 6.205 0.317 6.518 0.854 L 6.542 0.854 L 6.662 0.168 L 7.336 0.168 L 7.336 3.283 C 7.336 3.932 7.169 4.438 6.837 4.798 M 6.043 1.167 C 5.806 0.918 5.512 0.794 5.159 0.794 C 4.854 0.794 4.616 0.878 4.443 1.046 C 4.271 1.215 4.185 1.431 4.185 1.696 C 4.185 2.329 4.602 2.646 5.436 2.646 C 5.804 2.646 6.125 2.574 6.398 2.429 L 6.398 2.056 C 6.398 1.712 6.279 1.415 6.043 1.167 M 10.787 5.231 C 10.514 5.231 10.258 5.155 10.017 5.003 C 9.777 4.85 9.596 4.638 9.476 4.365 L 9.416 4.365 L 9.32 5.219 L 8.658 5.219 L 8.658 0.168 L 9.633 0.168 L 9.633 3.115 C 9.64 3.483 9.761 3.794 9.993 4.047 C 10.226 4.299 10.494 4.426 10.799 4.426 L 11.052 4.426 L 11.052 5.231 Z M 12.819 6.428 C 12.94 6.544 13 6.69 13 6.867 C 13 7.043 12.94 7.192 12.819 7.312 C 12.699 7.432 12.555 7.492 12.386 7.492 C 12.21 7.492 12.062 7.432 11.941 7.312 C 11.821 7.192 11.761 7.043 11.761 6.867 C 11.761 6.69 11.821 6.544 11.941 6.428 C 12.062 6.312 12.21 6.253 12.386 6.253 C 12.555 6.253 12.699 6.312 12.819 6.428 M 12.879 5.219 L 11.893 5.219 L 11.893 0.168 L 12.879 0.168 Z M 12.879 0.168 M 15.236 0.168 L 15.236 3.367 C 15.236 3.672 15.343 3.939 15.555 4.167 C 15.767 4.395 16.058 4.51 16.427 4.51 C 16.796 4.51 17.08 4.383 17.281 4.131 C 17.481 3.878 17.582 3.531 17.582 3.091 L 17.582 0.168 L 18.568 0.168 L 18.568 3.163 C 18.568 3.852 18.401 4.387 18.069 4.768 C 17.736 5.149 17.273 5.34 16.68 5.34 C 15.99 5.34 15.461 5.055 15.092 4.486 L 15.02 4.486 L 14.924 5.219 L 14.262 5.219 L 14.262 0.168 Z M 24.039 5.219 L 22.476 5.219 C 22.267 5.283 22.031 5.315 21.766 5.315 C 21.197 5.315 20.754 5.147 20.438 4.81 C 20.121 4.474 19.963 4.057 19.963 3.56 C 19.963 3.191 20.051 2.87 20.227 2.598 C 19.802 2.373 19.59 2.044 19.59 1.611 C 19.59 1.09 19.846 0.726 20.359 0.517 C 19.83 0.244 19.566 -0.144 19.566 -0.649 C 19.566 -1.098 19.744 -1.453 20.101 -1.714 C 20.458 -1.974 21.009 -2.105 21.754 -2.105 C 22.484 -2.105 23.061 -1.942 23.486 -1.617 C 23.911 -1.293 24.124 -0.902 24.124 -0.445 C 24.124 0.028 23.965 0.387 23.649 0.631 C 23.332 0.876 22.769 1.018 21.959 1.058 C 21.518 1.082 21.181 1.126 20.949 1.191 C 20.716 1.255 20.572 1.321 20.516 1.389 C 20.46 1.457 20.432 1.551 20.432 1.672 C 20.432 1.872 20.524 2.02 20.708 2.117 C 21.013 1.932 21.365 1.84 21.766 1.84 C 22.352 1.84 22.805 2.006 23.125 2.339 C 23.446 2.672 23.606 3.067 23.606 3.524 C 23.606 3.997 23.542 4.297 23.414 4.426 L 23.414 4.45 L 24.039 4.45 Z M 23.161 -0.517 C 23.161 -0.766 23.043 -0.972 22.807 -1.136 C 22.57 -1.301 22.219 -1.383 21.754 -1.383 C 21.337 -1.383 21.025 -1.309 20.816 -1.16 C 20.608 -1.012 20.504 -0.826 20.504 -0.601 C 20.504 -0.208 20.748 0.092 21.237 0.301 C 21.39 0.285 21.63 0.269 21.959 0.253 C 22.76 0.229 23.161 -0.028 23.161 -0.517 M 22.488 4.299 C 22.664 4.103 22.753 3.86 22.753 3.572 C 22.753 3.275 22.666 3.032 22.494 2.844 C 22.322 2.656 22.079 2.562 21.766 2.562 C 21.47 2.562 21.235 2.658 21.063 2.85 C 20.89 3.043 20.804 3.283 20.804 3.572 C 20.804 3.852 20.89 4.093 21.063 4.293 C 21.235 4.494 21.47 4.594 21.766 4.594 C 22.071 4.594 22.312 4.496 22.488 4.299 M 28.254 4.798 C 27.922 5.159 27.415 5.34 26.733 5.34 C 26.02 5.34 25.442 5.187 25.001 4.883 L 25.362 4.101 L 25.519 4.209 C 25.623 4.273 25.779 4.337 25.988 4.402 C 26.196 4.466 26.404 4.498 26.613 4.498 C 27.415 4.498 27.816 4.097 27.816 3.295 L 27.816 3.139 C 27.463 3.251 27.11 3.307 26.757 3.307 C 26.084 3.307 25.563 3.157 25.194 2.856 C 24.825 2.556 24.641 2.157 24.641 1.66 C 24.641 1.195 24.797 0.81 25.11 0.505 C 25.422 0.2 25.851 0.048 26.396 0.048 C 27.11 0.048 27.623 0.317 27.936 0.854 L 27.96 0.854 L 28.08 0.168 L 28.754 0.168 L 28.754 3.283 C 28.754 3.932 28.587 4.438 28.254 4.798 M 27.461 1.167 C 27.224 0.918 26.93 0.794 26.577 0.794 C 26.272 0.794 26.034 0.878 25.861 1.046 C 25.689 1.215 25.603 1.431 25.603 1.696 C 25.603 2.329 26.02 2.646 26.853 2.646 C 27.222 2.646 27.543 2.574 27.816 2.429 L 27.816 2.056 C 27.816 1.712 27.697 1.415 27.461 1.167 M 31.05 0.168 L 31.05 3.367 C 31.05 3.672 31.157 3.939 31.369 4.167 C 31.581 4.395 31.872 4.51 32.241 4.51 C 32.61 4.51 32.894 4.383 33.095 4.131 C 33.295 3.878 33.395 3.531 33.395 3.091 L 33.395 0.168 L 34.382 0.168 L 34.382 3.163 C 34.382 3.852 34.215 4.387 33.882 4.768 C 33.55 5.149 33.087 5.34 32.493 5.34 C 31.804 5.34 31.275 5.055 30.906 4.486 L 30.834 4.486 L 30.738 5.219 L 30.076 5.219 L 30.076 0.168 Z M 39.216 0.168 L 39.216 2.489 L 40.863 2.489 C 41.649 2.489 42.272 2.706 42.733 3.139 C 43.194 3.572 43.425 4.185 43.425 4.979 C 43.425 5.732 43.2 6.322 42.752 6.747 C 42.302 7.171 41.689 7.384 40.912 7.384 L 38.23 7.384 L 38.23 0.168 Z M 40.863 3.391 L 39.216 3.391 L 39.216 6.482 L 40.863 6.482 C 41.344 6.482 41.723 6.354 42 6.097 C 42.277 5.84 42.415 5.46 42.415 4.955 C 42.415 3.912 41.898 3.391 40.863 3.391 M 47.526 1.203 C 47.438 1.122 47.289 1.044 47.081 0.968 C 46.872 0.892 46.652 0.854 46.42 0.854 C 45.987 0.854 45.636 1 45.367 1.293 C 45.099 1.585 44.956 2.012 44.94 2.574 L 48.248 2.574 L 48.248 2.826 C 48.248 3.564 48.067 4.167 47.706 4.636 C 47.346 5.105 46.836 5.34 46.179 5.34 C 45.514 5.34 44.98 5.091 44.58 4.594 C 44.179 4.097 43.978 3.459 43.978 2.682 C 43.978 1.888 44.191 1.249 44.616 0.764 C 45.041 0.278 45.622 0.036 46.359 0.036 C 46.712 0.036 47.031 0.09 47.316 0.198 C 47.6 0.307 47.779 0.395 47.851 0.463 C 47.923 0.531 47.979 0.585 48.019 0.625 L 47.67 1.311 Z M 47.273 3.295 L 44.976 3.295 C 45.105 4.121 45.501 4.534 46.167 4.534 C 46.816 4.534 47.185 4.121 47.273 3.295 M 50.256 0.168 L 50.256 3.367 C 50.256 3.672 50.362 3.939 50.574 4.167 C 50.787 4.395 51.077 4.51 51.446 4.51 C 51.815 4.51 52.1 4.383 52.3 4.131 C 52.5 3.878 52.601 3.531 52.601 3.091 L 52.601 0.168 L 53.587 0.168 L 53.587 3.163 C 53.587 3.852 53.42 4.387 53.088 4.768 C 52.755 5.149 52.292 5.34 51.699 5.34 C 51.009 5.34 50.48 5.055 50.111 4.486 L 50.039 4.486 L 49.943 5.219 L 49.282 5.219 L 49.282 0.168 Z M 58.157 1.203 C 58.068 1.122 57.92 1.044 57.712 0.968 C 57.503 0.892 57.283 0.854 57.05 0.854 C 56.617 0.854 56.267 1 55.998 1.293 C 55.729 1.585 55.587 2.012 55.571 2.574 L 58.878 2.574 L 58.878 2.826 C 58.878 3.564 58.698 4.167 58.337 4.636 C 57.976 5.105 57.467 5.34 56.81 5.34 C 56.144 5.34 55.611 5.091 55.21 4.594 C 54.809 4.097 54.609 3.459 54.609 2.682 C 54.609 1.888 54.821 1.249 55.246 0.764 C 55.671 0.278 56.253 0.036 56.99 0.036 C 57.343 0.036 57.662 0.09 57.946 0.198 C 58.231 0.307 58.409 0.395 58.481 0.463 C 58.554 0.531 58.61 0.585 58.65 0.625 L 58.301 1.311 Z M 57.904 3.295 L 55.607 3.295 C 55.735 4.121 56.132 4.534 56.798 4.534 C 57.447 4.534 57.816 4.121 57.904 3.295 M 60.911 7.444 L 59.937 7.444 L 59.937 0.168 L 60.911 0.168 Z M 60.911 0.168 M 63.243 6.428 C 63.364 6.544 63.424 6.69 63.424 6.867 C 63.424 7.043 63.364 7.192 63.243 7.312 C 63.123 7.432 62.979 7.492 62.811 7.492 C 62.634 7.492 62.486 7.432 62.366 7.312 C 62.245 7.192 62.185 7.043 62.185 6.867 C 62.185 6.69 62.245 6.544 62.366 6.428 C 62.486 6.312 62.634 6.253 62.811 6.253 C 62.979 6.253 63.123 6.312 63.243 6.428 M 63.304 5.219 L 62.318 5.219 L 62.318 0.168 L 63.304 0.168 Z M 63.304 0.168 M 64.157 4.438 L 64.999 4.438 L 64.999 1.636 C 64.999 0.577 65.48 0.048 66.442 0.048 C 66.867 0.048 67.228 0.168 67.525 0.409 L 67.212 1.106 L 67.128 1.058 C 67.072 1.018 66.991 0.98 66.887 0.944 C 66.783 0.908 66.683 0.89 66.587 0.89 C 66.186 0.89 65.985 1.142 65.985 1.648 L 65.985 4.438 L 67.272 4.438 L 67.272 5.219 L 65.985 5.219 L 65.985 6.759 L 64.999 6.759 L 64.999 5.219 L 64.157 5.219 Z M 69.256 6.428 C 69.377 6.544 69.437 6.69 69.437 6.867 C 69.437 7.043 69.377 7.192 69.256 7.312 C 69.136 7.432 68.992 7.492 68.823 7.492 C 68.647 7.492 68.499 7.432 68.378 7.312 C 68.258 7.192 68.198 7.043 68.198 6.867 C 68.198 6.69 68.258 6.544 68.378 6.428 C 68.499 6.312 68.647 6.253 68.823 6.253 C 68.992 6.253 69.136 6.312 69.256 6.428 M 69.316 5.219 L 68.33 5.219 L 68.33 0.168 L 69.316 0.168 Z M 69.316 0.168 M 73.94 4.798 C 73.608 5.159 73.1 5.34 72.419 5.34 C 71.705 5.34 71.128 5.187 70.687 4.883 L 71.048 4.101 L 71.204 4.209 C 71.309 4.273 71.465 4.337 71.673 4.402 C 71.882 4.466 72.09 4.498 72.299 4.498 C 73.1 4.498 73.501 4.097 73.501 3.295 L 73.501 3.139 C 73.148 3.251 72.796 3.307 72.443 3.307 C 71.77 3.307 71.248 3.157 70.88 2.856 C 70.511 2.556 70.327 2.157 70.327 1.66 C 70.327 1.195 70.483 0.81 70.796 0.505 C 71.108 0.2 71.537 0.048 72.082 0.048 C 72.796 0.048 73.309 0.317 73.622 0.854 L 73.646 0.854 L 73.766 0.168 L 74.439 0.168 L 74.439 3.283 C 74.439 3.932 74.273 4.438 73.94 4.798 M 73.147 1.167 C 72.91 0.918 72.615 0.794 72.263 0.794 C 71.958 0.794 71.719 0.878 71.547 1.046 C 71.375 1.215 71.289 1.431 71.289 1.696 C 71.289 2.329 71.705 2.646 72.539 2.646 C 72.908 2.646 73.229 2.574 73.501 2.429 L 73.501 2.056 C 73.501 1.712 73.383 1.415 73.147 1.167 M 76.736 0.168 L 76.736 3.367 C 76.736 3.672 76.842 3.939 77.055 4.167 C 77.267 4.395 77.558 4.51 77.927 4.51 C 78.295 4.51 78.58 4.383 78.781 4.131 C 78.981 3.878 79.081 3.531 79.081 3.091 L 79.081 0.168 L 80.067 0.168 L 80.067 3.163 C 80.067 3.852 79.901 4.387 79.568 4.768 C 79.236 5.149 78.773 5.34 78.179 5.34 C 77.49 5.34 76.961 5.055 76.592 4.486 L 76.52 4.486 L 76.424 5.219 L 75.762 5.219 L 75.762 0.168 Z M 88.353 7.384 L 88.353 4.173 L 84.902 4.173 L 84.902 7.384 L 83.916 7.384 L 83.916 0.168 L 84.902 0.168 L 84.902 3.295 L 88.353 3.295 L 88.353 0.168 L 89.339 0.168 L 89.339 7.384 Z M 91.023 0.168 L 92.009 0.168 L 92.009 7.384 L 91.023 7.384 Z M 91.023 7.384 M 96.603 0.168 L 99.369 7.384 L 98.334 7.384 L 96.121 1.408 L 93.921 7.384 L 92.887 7.384 L 95.653 0.168 Z M 105.37 4.762 C 105.289 4.89 105.123 5.019 104.871 5.147 C 104.618 5.275 104.323 5.34 103.987 5.34 C 103.377 5.34 102.87 5.093 102.465 4.6 C 102.06 4.107 101.858 3.471 101.858 2.694 C 101.858 1.9 102.062 1.261 102.471 0.776 C 102.88 0.291 103.397 0.048 104.023 0.048 C 104.255 0.048 104.47 0.08 104.666 0.144 C 104.862 0.208 105.017 0.281 105.129 0.361 C 105.241 0.441 105.343 0.533 105.436 0.637 C 105.528 0.741 105.586 0.814 105.61 0.854 C 105.634 0.894 105.65 0.926 105.658 0.95 L 105.706 0.95 L 105.851 0.168 L 106.512 0.168 L 106.512 7.444 L 105.526 7.444 L 105.526 4.582 L 105.49 4.582 Z M 104.215 0.866 C 103.822 0.866 103.497 1.038 103.241 1.383 C 102.984 1.728 102.856 2.165 102.856 2.694 C 102.856 3.231 102.984 3.67 103.241 4.011 C 103.497 4.351 103.822 4.522 104.215 4.522 C 104.608 4.522 104.937 4.355 105.201 4.023 C 105.466 3.69 105.598 3.247 105.598 2.694 C 105.598 2.141 105.466 1.698 105.201 1.365 C 104.937 1.032 104.608 0.866 104.215 0.866 M 111.124 4.798 C 110.791 5.159 110.284 5.34 109.603 5.34 C 108.889 5.34 108.312 5.187 107.871 4.883 L 108.232 4.101 L 108.388 4.209 C 108.492 4.273 108.648 4.337 108.857 4.402 C 109.065 4.466 109.274 4.498 109.482 4.498 C 110.284 4.498 110.685 4.097 110.685 3.295 L 110.685 3.139 C 110.332 3.251 109.979 3.307 109.627 3.307 C 108.953 3.307 108.432 3.157 108.063 2.856 C 107.694 2.556 107.51 2.157 107.51 1.66 C 107.51 1.195 107.666 0.81 107.979 0.505 C 108.292 0.2 108.721 0.048 109.266 0.048 C 109.979 0.048 110.492 0.317 110.805 0.854 L 110.829 0.854 L 110.949 0.168 L 111.623 0.168 L 111.623 3.283 C 111.623 3.932 111.456 4.438 111.124 4.798 M 110.33 1.167 C 110.094 0.918 109.799 0.794 109.446 0.794 C 109.141 0.794 108.903 0.878 108.731 1.046 C 108.558 1.215 108.472 1.431 108.472 1.696 C 108.472 2.329 108.889 2.646 109.723 2.646 C 110.092 2.646 110.412 2.574 110.685 2.429 L 110.685 2.056 C 110.685 1.712 110.567 1.415 110.33 1.167 M 113.92 0.168 L 113.92 3.367 C 113.92 3.672 114.026 3.939 114.238 4.167 C 114.451 4.395 114.741 4.51 115.11 4.51 C 115.479 4.51 115.764 4.383 115.964 4.131 C 116.164 3.878 116.265 3.531 116.265 3.091 L 116.265 0.168 L 117.251 0.168 L 117.251 3.163 C 117.251 3.852 117.084 4.387 116.752 4.768 C 116.419 5.149 115.956 5.34 115.363 5.34 C 114.673 5.34 114.144 5.055 113.775 4.486 L 113.703 4.486 L 113.607 5.219 L 112.946 5.219 L 112.946 0.168 Z M 122.759 7.384 L 119.993 0.168 L 121.027 0.168 L 121.598 1.72 L 124.873 1.72 L 125.441 0.168 L 126.475 0.168 L 123.709 7.384 Z M 124.551 2.598 L 121.922 2.598 L 123.24 6.177 Z M 127.353 0.168 L 128.339 0.168 L 128.339 7.384 L 127.353 7.384 Z M 127.353 7.384 M 132.319 7.384 L 130.022 7.384 L 130.022 0.168 L 132.319 0.168 C 133.337 0.168 134.151 0.497 134.76 1.154 C 135.37 1.812 135.674 2.686 135.674 3.776 C 135.674 4.866 135.37 5.74 134.76 6.398 C 134.151 7.055 133.337 7.384 132.319 7.384 M 133.985 5.754 C 134.438 5.269 134.664 4.61 134.664 3.776 C 134.664 2.942 134.438 2.283 133.985 1.798 C 133.532 1.313 132.957 1.07 132.259 1.07 L 131.008 1.07 L 131.008 6.482 L 132.259 6.482 C 132.957 6.482 133.532 6.239 133.985 5.754 M 136.6 0.794 C 136.656 0.729 136.753 0.653 136.889 0.565 C 137.025 0.477 137.182 0.391 137.358 0.307 C 137.534 0.222 137.763 0.15 138.044 0.09 C 138.324 0.03 138.621 0 138.933 0 C 139.711 0 140.31 0.196 140.731 0.589 C 141.152 0.982 141.363 1.487 141.363 2.105 C 141.363 2.666 141.202 3.119 140.882 3.463 C 140.561 3.808 139.988 4.105 139.162 4.353 C 138.544 4.546 138.13 4.728 137.917 4.901 C 137.705 5.073 137.599 5.295 137.599 5.568 C 137.599 5.897 137.719 6.153 137.959 6.338 C 138.2 6.522 138.525 6.614 138.933 6.614 C 139.254 6.614 139.563 6.558 139.859 6.446 C 140.156 6.334 140.346 6.243 140.431 6.175 C 140.515 6.107 140.581 6.049 140.629 6.001 L 141.158 6.819 L 140.954 6.999 C 140.817 7.119 140.565 7.24 140.196 7.36 C 139.827 7.48 139.406 7.54 138.933 7.54 C 138.18 7.54 137.593 7.362 137.172 7.005 C 136.751 6.648 136.54 6.165 136.54 5.556 C 136.54 5.011 136.707 4.582 137.039 4.269 C 137.372 3.957 137.931 3.672 138.717 3.415 C 139.35 3.215 139.773 3.02 139.986 2.832 C 140.198 2.644 140.304 2.389 140.304 2.068 C 140.304 1.716 140.19 1.437 139.962 1.233 C 139.733 1.028 139.382 0.926 138.909 0.926 C 138.565 0.926 138.232 0.99 137.911 1.118 C 137.59 1.247 137.38 1.351 137.28 1.431 C 137.18 1.511 137.101 1.575 137.045 1.624 L 136.504 0.878 Z M 144.958 0.168 L 145.944 0.168 L 145.944 7.384 L 144.958 7.384 Z M 144.958 7.384 M 148.446 0.168 L 148.446 3.367 C 148.446 3.672 148.552 3.939 148.764 4.167 C 148.977 4.395 149.267 4.51 149.636 4.51 C 150.005 4.51 150.29 4.383 150.49 4.131 C 150.69 3.878 150.791 3.531 150.791 3.091 L 150.791 0.168 L 151.777 0.168 L 151.777 3.163 C 151.777 3.852 151.61 4.387 151.278 4.768 C 150.945 5.149 150.482 5.34 149.889 5.34 C 149.199 5.34 148.67 5.055 148.301 4.486 L 148.229 4.486 L 148.133 5.219 L 147.472 5.219 L 147.472 0.168 Z M 156.311 4.762 C 156.23 4.89 156.064 5.019 155.811 5.147 C 155.559 5.275 155.264 5.34 154.928 5.34 C 154.318 5.34 153.811 5.093 153.406 4.6 C 153.001 4.107 152.799 3.471 152.799 2.694 C 152.799 1.9 153.003 1.261 153.412 0.776 C 153.821 0.291 154.338 0.048 154.964 0.048 C 155.196 0.048 155.41 0.08 155.607 0.144 C 155.803 0.208 155.958 0.281 156.07 0.361 C 156.182 0.441 156.284 0.533 156.377 0.637 C 156.469 0.741 156.527 0.814 156.551 0.854 C 156.575 0.894 156.591 0.926 156.599 0.95 L 156.647 0.95 L 156.792 0.168 L 157.453 0.168 L 157.453 7.444 L 156.467 7.444 L 156.467 4.582 L 156.431 4.582 Z M 155.156 0.866 C 154.763 0.866 154.438 1.038 154.182 1.383 C 153.925 1.728 153.797 2.165 153.797 2.694 C 153.797 3.231 153.925 3.67 154.182 4.011 C 154.438 4.351 154.763 4.522 155.156 4.522 C 155.549 4.522 155.878 4.355 156.142 4.023 C 156.407 3.69 156.539 3.247 156.539 2.694 C 156.539 2.141 156.407 1.698 156.142 1.365 C 155.878 1.032 155.549 0.866 155.156 0.866 M 160.868 5.34 C 160.203 5.34 159.646 5.093 159.197 4.6 C 158.748 4.107 158.523 3.463 158.523 2.67 C 158.523 1.884 158.748 1.251 159.197 0.77 C 159.646 0.289 160.203 0.048 160.868 0.048 C 161.534 0.048 162.095 0.289 162.552 0.77 C 163.009 1.251 163.237 1.884 163.237 2.67 C 163.237 3.455 163.009 4.097 162.552 4.594 C 162.095 5.091 161.534 5.34 160.868 5.34 M 159.882 1.341 C 159.618 1.673 159.485 2.121 159.485 2.682 C 159.485 3.243 159.618 3.694 159.882 4.035 C 160.147 4.375 160.475 4.546 160.868 4.546 C 161.261 4.546 161.592 4.375 161.86 4.035 C 162.129 3.694 162.263 3.243 162.263 2.682 C 162.263 2.121 162.131 1.673 161.866 1.341 C 161.602 1.008 161.269 0.842 160.868 0.842 C 160.475 0.842 160.147 1.008 159.882 1.341 M 165.282 0.168 L 165.282 3.367 C 165.282 3.672 165.388 3.939 165.6 4.167 C 165.813 4.395 166.103 4.51 166.472 4.51 C 166.841 4.51 167.126 4.383 167.326 4.131 C 167.526 3.878 167.627 3.531 167.627 3.091 L 167.627 0.168 L 168.613 0.168 L 168.613 3.163 C 168.613 3.852 168.446 4.387 168.114 4.768 C 167.781 5.149 167.318 5.34 166.725 5.34 C 166.035 5.34 165.506 5.055 165.137 4.486 L 165.065 4.486 L 164.969 5.219 L 164.308 5.219 L 164.308 0.168 Z M 173.183 1.203 C 173.094 1.122 172.946 1.044 172.738 0.968 C 172.529 0.892 172.309 0.854 172.076 0.854 C 171.643 0.854 171.293 1 171.024 1.293 C 170.755 1.585 170.613 2.012 170.597 2.574 L 173.904 2.574 L 173.904 2.826 C 173.904 3.564 173.724 4.167 173.363 4.636 C 173.002 5.105 172.493 5.34 171.836 5.34 C 171.17 5.34 170.637 5.091 170.236 4.594 C 169.835 4.097 169.635 3.459 169.635 2.682 C 169.635 1.888 169.847 1.249 170.272 0.764 C 170.697 0.278 171.278 0.036 172.016 0.036 C 172.369 0.036 172.688 0.09 172.972 0.198 C 173.257 0.307 173.435 0.395 173.507 0.463 C 173.58 0.531 173.636 0.585 173.676 0.625 L 173.327 1.311 Z M 172.93 3.295 L 170.633 3.295 C 170.761 4.121 171.158 4.534 171.824 4.534 C 172.473 4.534 172.842 4.121 172.93 3.295 M 174.83 0.505 C 174.95 0.401 175.173 0.299 175.498 0.198 C 175.822 0.098 176.185 0.048 176.586 0.048 C 177.219 0.048 177.686 0.19 177.987 0.475 C 178.288 0.76 178.438 1.122 178.438 1.563 C 178.438 1.932 178.341 2.235 178.148 2.472 C 177.954 2.709 177.717 2.871 177.437 2.957 C 177.157 3.044 176.881 3.129 176.608 3.212 C 176.336 3.296 176.099 3.393 175.899 3.502 C 175.7 3.612 175.6 3.752 175.6 3.924 C 175.6 4.339 175.9 4.546 176.502 4.546 C 177.079 4.546 177.564 4.405 177.957 4.125 L 178.318 4.919 L 178.113 5.027 C 177.977 5.091 177.748 5.159 177.428 5.231 C 177.107 5.303 176.766 5.34 176.406 5.34 C 175.828 5.34 175.391 5.203 175.095 4.931 C 174.798 4.658 174.65 4.309 174.65 3.884 C 174.65 3.548 174.748 3.267 174.944 3.043 C 175.141 2.818 175.378 2.66 175.656 2.568 C 175.934 2.476 176.21 2.384 176.485 2.294 C 176.759 2.203 176.995 2.098 177.192 1.978 C 177.389 1.859 177.488 1.703 177.488 1.512 C 177.488 1.065 177.187 0.842 176.586 0.842 C 175.985 0.842 175.467 1.006 175.035 1.335 L 174.638 0.661 Z M 180.434 6.428 C 180.554 6.544 180.615 6.69 180.615 6.867 C 180.615 7.043 180.554 7.192 180.434 7.312 C 180.314 7.432 180.17 7.492 180.001 7.492 C 179.825 7.492 179.677 7.432 179.556 7.312 C 179.436 7.192 179.376 7.043 179.376 6.867 C 179.376 6.69 179.436 6.544 179.556 6.428 C 179.677 6.312 179.825 6.253 180.001 6.253 C 180.17 6.253 180.314 6.312 180.434 6.428 M 180.494 5.219 L 179.508 5.219 L 179.508 0.168 L 180.494 0.168 Z M 180.494 0.168 M 185.118 4.798 C 184.785 5.159 184.278 5.34 183.597 5.34 C 182.883 5.34 182.306 5.187 181.865 4.883 L 182.226 4.101 L 182.382 4.209 C 182.486 4.273 182.643 4.337 182.851 4.402 C 183.06 4.466 183.268 4.498 183.477 4.498 C 184.278 4.498 184.679 4.097 184.679 3.295 L 184.679 3.139 C 184.326 3.251 183.974 3.307 183.621 3.307 C 182.948 3.307 182.426 3.157 182.058 2.856 C 181.689 2.556 181.504 2.157 181.504 1.66 C 181.504 1.195 181.661 0.81 181.973 0.505 C 182.286 0.2 182.715 0.048 183.26 0.048 C 183.974 0.048 184.487 0.317 184.8 0.854 L 184.824 0.854 L 184.944 0.168 L 185.617 0.168 L 185.617 3.283 C 185.617 3.932 185.451 4.438 185.118 4.798 M 184.325 1.167 C 184.088 0.918 183.793 0.794 183.441 0.794 C 183.136 0.794 182.897 0.878 182.725 1.046 C 182.553 1.215 182.467 1.431 182.467 1.696 C 182.467 2.329 182.883 2.646 183.717 2.646 C 184.086 2.646 184.407 2.574 184.679 2.429 L 184.679 2.056 C 184.679 1.712 184.561 1.415 184.325 1.167" style="fill: rgb(255, 255, 255); fill-opacity: 1;"/>
        </g>
      </g>
    </g>
  </g>
</svg>